<svg width="20" height="20" viewBox="0 0 20 20" fill="none" xmlns="http://www.w3.org/2000/svg">
<mask id="mask0_3276_27851" style="mask-type:alpha" maskUnits="userSpaceOnUse" x="0" y="0" width="20" height="20">
<rect width="20" height="20" fill="#D9D9D9"/>
</mask>
<g mask="url(#mask0_3276_27851)">
<path d="M7.95785 9.99997L14.0828 16.125C14.2912 16.3333 14.3919 16.5764 14.3849 16.8541C14.378 17.1319 14.2703 17.375 14.062 17.5833C13.8537 17.7916 13.6106 17.8958 13.3328 17.8958C13.0551 17.8958 12.812 17.7916 12.6037 17.5833L6.18701 11.1875C6.02035 11.0208 5.89535 10.8333 5.81201 10.625C5.72868 10.4166 5.68701 10.2083 5.68701 9.99997C5.68701 9.79164 5.72868 9.5833 5.81201 9.37497C5.89535 9.16664 6.02035 8.97914 6.18701 8.81247L12.6037 2.3958C12.812 2.18747 13.0585 2.08678 13.3433 2.09372C13.628 2.10066 13.8745 2.2083 14.0828 2.41664C14.2912 2.62497 14.3953 2.86803 14.3953 3.1458C14.3953 3.42358 14.2912 3.66664 14.0828 3.87497L7.95785 9.99997Z" fill="#303940"/>
</g>
</svg>
