<svg width="10" height="16" viewBox="0 0 10 16" fill="none" xmlns="http://www.w3.org/2000/svg">
<path d="M7.04215 8.00003L0.917155 1.87503C0.708822 1.6667 0.608128 1.42364 0.615072 1.14586C0.622016 0.868086 0.729655 0.62503 0.937988 0.416697C1.14632 0.208364 1.38938 0.104197 1.66715 0.104197C1.94493 0.104197 2.18799 0.208364 2.39632 0.416697L8.81299 6.81253C8.97965 6.9792 9.10465 7.1667 9.18799 7.37503C9.27132 7.58336 9.31299 7.7917 9.31299 8.00003C9.31299 8.20836 9.27132 8.4167 9.18799 8.62503C9.10465 8.83336 8.97965 9.02086 8.81299 9.18753L2.39632 15.6042C2.18799 15.8125 1.94146 15.9132 1.65674 15.9063C1.37202 15.8993 1.12549 15.7917 0.917155 15.5834C0.708822 15.375 0.604655 15.132 0.604655 14.8542C0.604655 14.5764 0.708822 14.3334 0.917155 14.125L7.04215 8.00003Z" fill="#303940"/>
</svg>
