<svg width="36" height="36" viewBox="0 0 36 36" fill="none" xmlns="http://www.w3.org/2000/svg">
<g id="carpenter">
<mask id="mask0_3029_22534" style="mask-type:alpha" maskUnits="userSpaceOnUse" x="0" y="0" width="36" height="36">
<rect id="Bounding box" width="36" height="36" fill="#D9D9D9"/>
</mask>
<g mask="url(#mask0_3029_22534)">
<path id="carpenter_2" d="M23.0105 31.6182C22.7548 31.8739 22.4601 32.0697 22.1266 32.2054C21.7929 32.3409 21.4501 32.4087 21.0984 32.4087C20.7464 32.4087 20.4021 32.3409 20.0656 32.2054C19.7291 32.0697 19.433 31.8739 19.1773 31.6182L17.1924 29.6479C16.9366 29.3922 16.7473 29.1077 16.6243 28.7944C16.5013 28.4809 16.432 28.1636 16.4165 27.8423C16.401 27.5213 16.4495 27.2002 16.562 26.8789C16.6745 26.5577 16.8385 26.2616 17.054 25.9906L17.3656 25.6182L5.14063 8.14319L10.5001 2.78369L29.2558 21.5397C29.5115 21.7954 29.7073 22.0901 29.843 22.4236C29.9785 22.7573 30.0463 23.1001 30.0463 23.4518C30.0463 23.8038 29.9785 24.1481 29.843 24.4846C29.7073 24.8211 29.5115 25.1172 29.2558 25.3729L23.0105 31.6182ZM20.7954 30.0147C20.8914 30.1012 21.0019 30.1444 21.1269 30.1444C21.2521 30.1444 21.358 30.1012 21.4445 30.0147L27.6523 23.8069C27.7388 23.7204 27.782 23.6146 27.782 23.4893C27.782 23.3643 27.7388 23.2538 27.6523 23.1578L25.3501 20.8039L18.773 27.3807C18.677 27.4769 18.629 27.5899 18.629 27.7197C18.629 27.8497 18.677 27.9579 18.773 28.0444L20.7954 30.0147Z" fill="#1C1B1F"/>
</g>
</g>
</svg>
