<svg width="36" height="36" viewBox="0 0 36 36" fill="none" xmlns="http://www.w3.org/2000/svg">
<g id="cleaning_services">
<mask id="mask0_3029_4897" style="mask-type:alpha" maskUnits="userSpaceOnUse" x="0" y="0" width="36" height="36">
<rect id="Bounding box" width="36" height="36" fill="#D9D9D9"/>
</mask>
<g mask="url(#mask0_3029_4897)">
<path id="cleaning_services_2" d="M5.25 33.75L5.25 24.1009C5.25 22.1456 5.93913 20.479 7.31738 19.101C8.69538 17.7228 10.362 17.0336 12.3172 17.0336L14.0336 17.0336L14.0336 4.97588C14.0336 4.22638 14.2961 3.58462 14.8211 3.05062C15.3461 2.51687 15.9826 2.25 16.7306 2.25L19.2694 2.25C20.0174 2.25 20.6539 2.51687 21.1789 3.05062C21.7039 3.58462 21.9664 4.22638 21.9664 4.97588L21.9664 17.0336L23.6681 17.0336C25.6274 17.0336 27.2975 17.7228 28.6785 19.101C30.0595 20.479 30.75 22.1456 30.75 24.1009L30.75 33.75L5.25 33.75ZM7.5 31.5L11.0625 31.5L11.0625 26.6104C11.0625 26.2916 11.1704 26.0245 11.3861 25.809C11.6019 25.5935 11.8691 25.4858 12.1879 25.4858C12.5069 25.4858 12.774 25.5935 12.9892 25.809C13.2047 26.0245 13.3125 26.2916 13.3125 26.6104L13.3125 31.5L16.875 31.5L16.875 26.6104C16.875 26.2916 16.9829 26.0245 17.1986 25.809C17.4144 25.5935 17.6816 25.4858 18.0004 25.4858C18.3194 25.4858 18.5865 25.5935 18.8017 25.809C19.0172 26.0245 19.125 26.2916 19.125 26.6104L19.125 31.5L22.6875 31.5L22.6875 26.6104C22.6875 26.2916 22.7954 26.0245 23.0111 25.809C23.2269 25.5935 23.4941 25.4858 23.8129 25.4858C24.1319 25.4858 24.399 25.5935 24.6142 25.809C24.8297 26.0245 24.9375 26.2916 24.9375 26.6104L24.9375 31.5L28.5 31.5L28.5 24.1009C28.5 22.7549 28.0302 21.6155 27.0907 20.6828C26.1512 19.75 25.0104 19.2836 23.6681 19.2836L12.3172 19.2836C10.9792 19.2836 9.84188 19.752 8.90513 20.6888C7.96838 21.6255 7.5 22.7629 7.5 24.1009L7.5 31.5Z" fill="#1C1B1F"/>
</g>
</g>
</svg>
