<svg width="36" height="36" viewBox="0 0 36 36" fill="none" xmlns="http://www.w3.org/2000/svg">
<g id="home_repair_service">
<mask id="mask0_3029_4957" style="mask-type:alpha" maskUnits="userSpaceOnUse" x="0" y="0" width="36" height="36">
<rect id="Bounding box" width="36" height="36" fill="#D9D9D9"/>
</mask>
<g mask="url(#mask0_3029_4957)">
<path id="home_repair_service_2" d="M13.125 12.3461L22.875 12.3461L22.875 9.46162C22.875 9.34612 22.8269 9.24037 22.7306 9.14437C22.6346 9.04812 22.5289 9 22.4134 9L13.5866 9C13.4711 9 13.3654 9.04812 13.2694 9.14437C13.1731 9.24037 13.125 9.34612 13.125 9.46163L13.125 12.3461ZM5.106 29.25C4.72175 29.25 4.39975 29.12 4.14 28.86C3.88 28.6003 3.75 28.2782 3.75 27.894L3.75 21.9229L9.28838 21.9229L9.28838 22.2979C9.28838 22.6166 9.39625 22.8839 9.612 23.0996C9.82775 23.3151 10.0951 23.4229 10.4141 23.4229C10.7329 23.4229 11 23.3151 11.2155 23.0996C11.4308 22.8839 11.5384 22.6166 11.5384 22.2979L11.5384 21.9229L24.4616 21.9229L24.4616 22.2979C24.4616 22.6166 24.5695 22.8839 24.7853 23.0996C25.001 23.3151 25.2683 23.4229 25.587 23.4229C25.906 23.4229 26.1731 23.3151 26.3884 23.0996C26.6039 22.8839 26.7116 22.6166 26.7116 22.2979L26.7116 21.9229L32.25 21.9229L32.25 27.894C32.25 28.2782 32.12 28.6003 31.86 28.86C31.6003 29.12 31.2783 29.25 30.894 29.25L5.106 29.25ZM3.75 20.5961L3.75 15.0626C3.75 14.3016 4.0125 13.6586 4.5375 13.1336C5.0625 12.6086 5.70388 12.3461 6.46163 12.3461L10.875 12.3461L10.875 9.46163C10.875 8.70387 11.1375 8.0625 11.6625 7.5375C12.1875 7.0125 12.8289 6.75 13.5866 6.75L22.4134 6.75C23.1711 6.75 23.8125 7.0125 24.3375 7.5375C24.8625 8.0625 25.125 8.70387 25.125 9.46162L25.125 12.3461L29.5384 12.3461C30.2961 12.3461 30.9375 12.6086 31.4625 13.1336C31.9875 13.6586 32.25 14.3016 32.25 15.0626L32.25 20.5961L26.7116 20.5961L26.7116 19.2979C26.7116 18.9794 26.6038 18.7122 26.388 18.4965C26.1723 18.281 25.9049 18.1733 25.5859 18.1733C25.2671 18.1733 25 18.281 24.7845 18.4965C24.5693 18.7122 24.4616 18.9794 24.4616 19.2979L24.4616 20.5961L11.5384 20.5961L11.5384 19.2979C11.5384 18.9794 11.4305 18.7122 11.2148 18.4965C10.999 18.281 10.7318 18.1733 10.413 18.1733C10.094 18.1733 9.82688 18.281 9.61163 18.4965C9.39613 18.7122 9.28838 18.9794 9.28838 19.2979L9.28838 20.5961L3.75 20.5961Z" fill="#1C1B1F"/>
</g>
</g>
</svg>
