<svg width="36" height="36" viewBox="0 0 36 36" fill="none" xmlns="http://www.w3.org/2000/svg">
<g id="lightbulb_2">
<mask id="mask0_3029_4210" style="mask-type:alpha" maskUnits="userSpaceOnUse" x="0" y="0" width="36" height="36">
<rect id="Bounding box" width="36" height="36" fill="#D9D9D9"/>
</mask>
<g mask="url(#mask0_3029_4210)">
<path id="lightbulb_2_2" d="M15.276 26.7116C14.5267 26.7116 13.8871 26.4461 13.3571 25.9151C12.8274 25.3841 12.5625 24.7458 12.5625 24L12.5625 21.6056C11.2048 20.6981 10.1466 19.5299 9.38813 18.1009C8.62938 16.6721 8.25 15.1433 8.25 13.5143C8.25 10.801 9.19575 8.49525 11.0873 6.597C12.9785 4.699 15.2819 3.75 17.9974 3.75C20.7126 3.75 23.0169 4.696 24.9101 6.588C26.8034 8.48 27.75 10.784 27.75 13.5C27.75 15.1385 27.3706 16.6683 26.6119 18.0893C25.8534 19.5105 24.7953 20.6826 23.4375 21.6056L23.4375 24C23.4375 24.7458 23.172 25.3841 22.641 25.9151C22.11 26.4461 21.4716 26.7116 20.7259 26.7116L15.276 26.7116ZM15.1298 32.25C14.811 32.25 14.5439 32.1421 14.3284 31.9264C14.1126 31.7106 14.0048 31.4434 14.0048 31.1246C14.0048 30.8056 14.1126 30.5385 14.3284 30.3233C14.5439 30.1078 14.811 30 15.1298 30L20.8703 30C21.189 30 21.4561 30.1079 21.6716 30.3236C21.8874 30.5394 21.9953 30.8066 21.9953 31.1254C21.9953 31.4444 21.8874 31.7115 21.6716 31.9268C21.4561 32.1423 21.189 32.25 20.8703 32.25L15.1298 32.25Z" fill="#1C1B1F"/>
</g>
</g>
</svg>
