<svg width="12" height="15" viewBox="0 0 12 15" fill="none" xmlns="http://www.w3.org/2000/svg">
<path d="M6 13.0125C7.525 11.6125 8.65625 10.3406 9.39375 9.19687C10.1313 8.05312 10.5 7.0375 10.5 6.15C10.5 4.7875 10.0656 3.67188 9.19688 2.80312C8.32813 1.93438 7.2625 1.5 6 1.5C4.7375 1.5 3.67188 1.93438 2.80313 2.80312C1.93438 3.67188 1.5 4.7875 1.5 6.15C1.5 7.0375 1.86875 8.05312 2.60625 9.19687C3.34375 10.3406 4.475 11.6125 6 13.0125ZM6 14.4938C5.825 14.4938 5.65 14.4625 5.475 14.4C5.3 14.3375 5.14375 14.2438 5.00625 14.1188C4.19375 13.3688 3.475 12.6375 2.85 11.925C2.225 11.2125 1.70313 10.5219 1.28438 9.85312C0.865625 9.18437 0.546875 8.54062 0.328125 7.92188C0.109375 7.30312 0 6.7125 0 6.15C0 4.275 0.603125 2.78125 1.80938 1.66875C3.01563 0.55625 4.4125 0 6 0C7.5875 0 8.98438 0.55625 10.1906 1.66875C11.3969 2.78125 12 4.275 12 6.15C12 6.7125 11.8906 7.30312 11.6719 7.92188C11.4531 8.54062 11.1344 9.18437 10.7156 9.85312C10.2969 10.5219 9.775 11.2125 9.15 11.925C8.525 12.6375 7.80625 13.3688 6.99375 14.1188C6.85625 14.2438 6.7 14.3375 6.525 14.4C6.35 14.4625 6.175 14.4938 6 14.4938ZM6 7.5C6.4125 7.5 6.76563 7.35313 7.05938 7.05938C7.35313 6.76563 7.5 6.4125 7.5 6C7.5 5.5875 7.35313 5.23438 7.05938 4.94063C6.76563 4.64687 6.4125 4.5 6 4.5C5.5875 4.5 5.23438 4.64687 4.94063 4.94063C4.64688 5.23438 4.5 5.5875 4.5 6C4.5 6.4125 4.64688 6.76563 4.94063 7.05938C5.23438 7.35313 5.5875 7.5 6 7.5Z" fill="white"/>
</svg>
