<svg width="26" height="25" viewBox="0 0 26 25" fill="none" xmlns="http://www.w3.org/2000/svg">
<path d="M11.6019 14.4078L9.20694 12.0208C9.08227 11.8959 8.9306 11.8293 8.75194 11.8208C8.57327 11.8122 8.41049 11.8814 8.26361 12.0285C8.12161 12.1703 8.0506 12.3275 8.0506 12.5002C8.0506 12.6728 8.12161 12.8301 8.26361 12.9718L10.8479 15.5565C11.0635 15.7718 11.3148 15.8795 11.6019 15.8795C11.889 15.8795 12.1404 15.7718 12.3559 15.5565L17.7403 10.1718C17.8703 10.0421 17.9383 9.88906 17.9443 9.71283C17.9503 9.53683 17.8823 9.37539 17.7403 9.2285C17.5934 9.08139 17.4348 9.00661 17.2646 9.00417C17.0946 9.0015 16.9362 9.07372 16.7893 9.22083L11.6019 14.4078ZM8.56094 23.9875L6.80694 21.0542L3.49927 20.3565C3.23438 20.3069 3.02327 20.1646 2.86594 19.9295C2.70883 19.6946 2.64394 19.4446 2.67127 19.1795L2.9866 15.7718L0.742938 13.2128C0.554938 13.0197 0.460938 12.7822 0.460938 12.5002C0.460938 12.2182 0.554938 11.9806 0.742938 11.7875L2.9866 9.2285L2.67127 5.82083C2.64394 5.55572 2.70883 5.30572 2.86594 5.07083C3.02327 4.83572 3.23438 4.69339 3.49927 4.64383L6.80694 3.94617L8.56094 1.01283C8.70449 0.775277 8.8976 0.610833 9.14027 0.519499C9.38316 0.427944 9.63449 0.440277 9.89427 0.556499L13.0019 1.8695L16.1096 0.556499C16.3694 0.440277 16.6207 0.427944 16.8636 0.519499C17.1063 0.610833 17.2994 0.775277 17.4429 1.01283L19.1969 3.94617L22.5046 4.64383C22.7695 4.69339 22.9806 4.83572 23.1379 5.07083C23.295 5.30572 23.3599 5.55572 23.3326 5.82083L23.0173 9.2285L25.2609 11.7875C25.4489 11.9806 25.5429 12.2182 25.5429 12.5002C25.5429 12.7822 25.4489 13.0197 25.2609 13.2128L23.0173 15.7718L23.3326 19.1795C23.3599 19.4446 23.295 19.6946 23.1379 19.9295C22.9806 20.1646 22.7695 20.3069 22.5046 20.3565L19.1969 21.0542L17.4429 23.9875C17.2994 24.2251 17.1063 24.3895 16.8636 24.4808C16.6207 24.5724 16.3694 24.5601 16.1096 24.4438L13.0019 23.1308L9.89427 24.4438C9.63449 24.5601 9.38316 24.5724 9.14027 24.4808C8.8976 24.3895 8.70449 24.2251 8.56094 23.9875ZM9.60194 23.1002L13.0019 21.6848L16.4173 23.1002L18.3353 19.9002L22.0019 19.0848L21.6686 15.3002L24.1353 12.5002L21.6686 9.68483L22.0019 5.90017L18.3353 5.10017L16.4019 1.90017L13.0019 3.3155L9.58661 1.90017L7.6686 5.10017L4.00194 5.90017L4.33527 9.68483L1.8686 12.5002L4.33527 15.3002L4.00194 19.1002L7.6686 19.9002L9.60194 23.1002Z" fill="#C54A09"/>
</svg>
