<svg width="32" height="33" viewBox="0 0 32 33" fill="none" xmlns="http://www.w3.org/2000/svg">
<mask id="mask0_2124_19256" style="mask-type:alpha" maskUnits="userSpaceOnUse" x="0" y="0" width="32" height="33">
<rect y="0.5" width="32" height="32" fill="#D9D9D9"/>
</mask>
<g mask="url(#mask0_2124_19256)">
<path d="M6.81806 27.1667C6.20428 27.1667 5.69184 26.9611 5.28073 26.55C4.86962 26.1389 4.66406 25.6264 4.66406 25.0127V7.98733C4.66406 7.37356 4.86962 6.86111 5.28073 6.45C5.69184 6.03889 6.20428 5.83333 6.81806 5.83333H18.5614C18.7503 5.83333 18.9086 5.89733 19.0364 6.02533C19.1642 6.15333 19.2281 6.31189 19.2281 6.501C19.2281 6.69011 19.1642 6.84833 19.0364 6.97567C18.9086 7.103 18.7503 7.16667 18.5614 7.16667H6.81806C6.61273 7.16667 6.42462 7.25211 6.25373 7.423C6.08284 7.59389 5.9974 7.782 5.9974 7.98733V25.0127C5.9974 25.218 6.08284 25.4061 6.25373 25.577C6.42462 25.7479 6.61273 25.8333 6.81806 25.8333H23.8434C24.0487 25.8333 24.2368 25.7479 24.4077 25.577C24.5786 25.4061 24.6641 25.218 24.6641 25.0127V13.2693C24.6641 13.0804 24.7281 12.9221 24.8561 12.7943C24.9841 12.6666 25.1426 12.6027 25.3317 12.6027C25.5208 12.6027 25.6791 12.6666 25.8064 12.7943C25.9337 12.9221 25.9974 13.0804 25.9974 13.2693V25.0127C25.9974 25.6264 25.7918 26.1389 25.3807 26.55C24.9696 26.9611 24.4572 27.1667 23.8434 27.1667H6.81806ZM11.3307 22.5C11.1418 22.5 10.9835 22.436 10.8557 22.308C10.728 22.18 10.6641 22.0214 10.6641 21.8323C10.6641 21.6432 10.728 21.485 10.8557 21.3577C10.9835 21.2303 11.1418 21.1667 11.3307 21.1667H19.3307C19.5196 21.1667 19.678 21.2307 19.8057 21.3587C19.9335 21.4867 19.9974 21.6452 19.9974 21.8343C19.9974 22.0234 19.9335 22.1817 19.8057 22.309C19.678 22.4363 19.5196 22.5 19.3307 22.5H11.3307ZM11.3307 18.5C11.1418 18.5 10.9835 18.436 10.8557 18.308C10.728 18.18 10.6641 18.0214 10.6641 17.8323C10.6641 17.6432 10.728 17.485 10.8557 17.3577C10.9835 17.2303 11.1418 17.1667 11.3307 17.1667H19.3307C19.5196 17.1667 19.678 17.2307 19.8057 17.3587C19.9335 17.4867 19.9974 17.6452 19.9974 17.8343C19.9974 18.0234 19.9335 18.1817 19.8057 18.309C19.678 18.4363 19.5196 18.5 19.3307 18.5H11.3307ZM11.3307 14.5C11.1418 14.5 10.9835 14.436 10.8557 14.308C10.728 14.18 10.6641 14.0214 10.6641 13.8323C10.6641 13.6432 10.728 13.485 10.8557 13.3577C10.9835 13.2303 11.1418 13.1667 11.3307 13.1667H19.3307C19.5196 13.1667 19.678 13.2307 19.8057 13.3587C19.9335 13.4867 19.9974 13.6452 19.9974 13.8343C19.9974 14.0234 19.9335 14.1817 19.8057 14.309C19.678 14.4363 19.5196 14.5 19.3307 14.5H11.3307ZM23.9964 11.1667C23.8073 11.1667 23.6491 11.1028 23.5217 10.975C23.3944 10.8472 23.3307 10.6889 23.3307 10.5V8.5H21.3307C21.1418 8.5 20.9835 8.436 20.8557 8.308C20.728 8.18 20.6641 8.02144 20.6641 7.83233C20.6641 7.64322 20.728 7.485 20.8557 7.35767C20.9835 7.23033 21.1418 7.16667 21.3307 7.16667H23.3307V5.16667C23.3307 4.97778 23.3947 4.81944 23.5227 4.69167C23.6507 4.56389 23.8093 4.5 23.9984 4.5C24.1875 4.5 24.3457 4.56389 24.4731 4.69167C24.6004 4.81944 24.6641 4.97778 24.6641 5.16667V7.16667H26.6641C26.853 7.16667 27.0113 7.23067 27.1391 7.35867C27.2668 7.48667 27.3307 7.64522 27.3307 7.83433C27.3307 8.02345 27.2668 8.18167 27.1391 8.309C27.0113 8.43633 26.853 8.5 26.6641 8.5H24.6641V10.5C24.6641 10.6889 24.6001 10.8472 24.4721 10.975C24.3441 11.1028 24.1855 11.1667 23.9964 11.1667Z" fill="#C54A09"/>
</g>
</svg>
