<svg width="32" height="33" viewBox="0 0 32 33" fill="none" xmlns="http://www.w3.org/2000/svg">
<mask id="mask0_2124_19264" style="mask-type:alpha" maskUnits="userSpaceOnUse" x="0" y="0" width="32" height="33">
<rect y="0.5" width="32" height="32" fill="#D9D9D9"/>
</mask>
<g mask="url(#mask0_2124_19264)">
<path d="M13.7191 23.282C11.5876 23.282 9.78113 22.5414 8.29979 21.0603C6.81868 19.579 6.07812 17.7726 6.07812 15.641C6.07812 13.5094 6.81868 11.703 8.29979 10.2217C9.78113 8.74055 11.5876 8 13.7191 8C15.8507 8 17.6571 8.74055 19.1385 10.2217C20.6196 11.703 21.3601 13.5094 21.3601 15.641C21.3601 16.5674 21.196 17.464 20.8678 18.3307C20.5396 19.1973 20.1088 19.9383 19.5755 20.5537L27.4525 28.4307C27.5771 28.5556 27.6438 28.7086 27.6525 28.8897C27.6609 29.071 27.5942 29.2326 27.4525 29.3743C27.3105 29.5161 27.1531 29.587 26.9805 29.587C26.808 29.587 26.6508 29.5161 26.5088 29.3743L18.6318 21.4973C17.9651 22.0649 17.1985 22.5042 16.3318 22.8153C15.4651 23.1264 14.5942 23.282 13.7191 23.282ZM13.7191 21.9487C15.4882 21.9487 16.9818 21.3397 18.1998 20.1217C19.4178 18.9039 20.0268 17.4103 20.0268 15.641C20.0268 13.8717 19.4178 12.3781 18.1998 11.1603C16.9818 9.94233 15.4882 9.33333 13.7191 9.33333C11.9498 9.33333 10.4562 9.94233 9.23846 11.1603C8.02046 12.3781 7.41146 13.8717 7.41146 15.641C7.41146 17.4103 8.02046 18.9039 9.23846 20.1217C10.4562 21.3397 11.9498 21.9487 13.7191 21.9487Z" fill="#C54A09"/>
</g>
</svg>
