<svg width="36" height="36" viewBox="0 0 36 36" fill="none" xmlns="http://www.w3.org/2000/svg">
<g id="shower">
<mask id="mask0_3029_4487" style="mask-type:alpha" maskUnits="userSpaceOnUse" x="0" y="0" width="36" height="36">
<rect id="Bounding box" width="36" height="36" fill="#D9D9D9"/>
</mask>
<g mask="url(#mask0_3029_4487)">
<path id="shower_2" d="M12.0566 26.1922C11.6804 26.1922 11.3654 26.065 11.1116 25.8105C10.8576 25.556 10.7306 25.2406 10.7306 24.8644C10.7306 24.4881 10.858 24.1731 11.1128 23.9194C11.3673 23.6654 11.6826 23.5384 12.0589 23.5384C12.4351 23.5384 12.7501 23.6656 13.0039 23.9201C13.2576 24.1746 13.3845 24.49 13.3845 24.8662C13.3845 25.2425 13.2572 25.5576 13.0028 25.8116C12.7483 26.0654 12.4329 26.1922 12.0566 26.1922ZM17.9989 26.1922C17.6226 26.1922 17.3076 26.065 17.0539 25.8105C16.8001 25.556 16.6733 25.2406 16.6733 24.8644C16.6733 24.4881 16.8005 24.1731 17.055 23.9194C17.3095 23.6654 17.6249 23.5384 18.0011 23.5384C18.3774 23.5384 18.6924 23.6656 18.9461 23.9201C19.1999 24.1746 19.3268 24.49 19.3268 24.8662C19.3268 25.2425 19.1995 25.5576 18.945 25.8116C18.6905 26.0654 18.3751 26.1922 17.9989 26.1922ZM23.9411 26.1922C23.5649 26.1922 23.2499 26.065 22.9961 25.8105C22.7424 25.556 22.6155 25.2406 22.6155 24.8644C22.6155 24.4881 22.7428 24.1731 22.9973 23.9194C23.2518 23.6654 23.5671 23.5384 23.9434 23.5384C24.3196 23.5384 24.6346 23.6656 24.8884 23.9201C25.1424 24.1746 25.2694 24.49 25.2694 24.8662C25.2694 25.2425 25.142 25.5576 24.8873 25.8116C24.6327 26.0654 24.3174 26.1922 23.9411 26.1922ZM8.25 20.25L8.25 18C8.25 15.4942 9.07363 13.3265 10.7209 11.4967C12.3679 9.667 14.4193 8.6155 16.875 8.34225L16.875 5.25L19.125 5.25L19.125 8.34225C21.5808 8.6155 23.6321 9.667 25.2791 11.4967C26.9264 13.3265 27.75 15.4942 27.75 18L27.75 20.25L8.25 20.25ZM12.0566 30.6345C11.6804 30.6345 11.3654 30.5072 11.1116 30.2527C10.8576 29.9982 10.7306 29.6829 10.7306 29.3066C10.7306 28.9304 10.858 28.6154 11.1128 28.3616C11.3673 28.1076 11.6826 27.9806 12.0589 27.9806C12.4351 27.9806 12.7501 28.1079 13.0039 28.3624C13.2576 28.6169 13.3845 28.9322 13.3845 29.3085C13.3845 29.6847 13.2573 29.9999 13.0028 30.2539C12.7483 30.5076 12.4329 30.6345 12.0566 30.6345ZM17.9989 30.6345C17.6226 30.6345 17.3076 30.5072 17.0539 30.2527C16.8001 29.9982 16.6733 29.6829 16.6733 29.3066C16.6733 28.9304 16.8005 28.6154 17.055 28.3616C17.3095 28.1076 17.6249 27.9806 18.0011 27.9806C18.3774 27.9806 18.6924 28.1079 18.9461 28.3624C19.1999 28.6169 19.3268 28.9322 19.3268 29.3085C19.3268 29.6847 19.1995 29.9999 18.945 30.2539C18.6905 30.5076 18.3751 30.6345 17.9989 30.6345ZM23.9411 30.6345C23.5649 30.6345 23.2499 30.5072 22.9961 30.2527C22.7424 29.9982 22.6155 29.6829 22.6155 29.3066C22.6155 28.9304 22.7428 28.6154 22.9973 28.3616C23.2518 28.1076 23.5671 27.9806 23.9434 27.9806C24.3196 27.9806 24.6346 28.1079 24.8884 28.3624C25.1424 28.6169 25.2694 28.9322 25.2694 29.3085C25.2694 29.6847 25.142 29.9999 24.8873 30.2539C24.6327 30.5076 24.3174 30.6345 23.9411 30.6345Z" fill="#1C1B1F"/>
</g>
</g>
</svg>
