<svg width="64" height="64" viewBox="0 0 64 64" fill="none" xmlns="http://www.w3.org/2000/svg">
<mask id="mask0_108_9374" style="mask-type:alpha" maskUnits="userSpaceOnUse" x="0" y="0" width="64" height="64">
<rect width="64" height="64" fill="#D9D9D9"/>
</mask>
<g mask="url(#mask0_108_9374)">
<path d="M14.1537 54.6667C12.8066 54.6667 11.6663 54.2 10.733 53.2667C9.79967 52.3334 9.33301 51.1931 9.33301 49.846V14.154C9.33301 12.8069 9.79967 11.6667 10.733 10.7334C11.6663 9.80004 12.8066 9.33337 14.1537 9.33337H34.1537V13.3334H14.1537C13.9141 13.3334 13.7175 13.4103 13.5637 13.564C13.4099 13.7178 13.333 13.9145 13.333 14.154V49.846C13.333 50.0856 13.4099 50.2823 13.5637 50.436C13.7175 50.5898 13.9141 50.6667 14.1537 50.6667H49.8457C50.0852 50.6667 50.2819 50.5898 50.4357 50.436C50.5895 50.2823 50.6663 50.0856 50.6663 49.846V29.846H54.6663V49.846C54.6663 51.1931 54.1997 52.3334 53.2663 53.2667C52.333 54.2 51.1928 54.6667 49.8457 54.6667H14.1537ZM17.0257 44.5127H46.9737L37.6663 32.1027L29.6663 42.4874L23.9997 35.282L17.0257 44.5127ZM45.333 24V18.6667H39.9997V14.6667H45.333V9.33337H49.333V14.6667H54.6663V18.6667H49.333V24H45.333Z" fill="black" fill-opacity="0.3"/>
</g>
</svg>
