<svg width="200" height="200" viewBox="0 0 200 200" fill="none" xmlns="http://www.w3.org/2000/svg">
<path d="M120.689 5.47437L120.481 24.455L132.392 45.0992L132.6 26.1186L120.689 5.47437Z" fill="#202125"/>
<path d="M125.417 33.0877L119.178 39.2885L117.458 60.1407L132.412 45.1869L125.417 33.0877Z" fill="#202125"/>
<path fill-rule="evenodd" clip-rule="evenodd" d="M125.374 90.4334C138.039 79.0577 150.044 66.9701 161.335 54.2294C158.234 48.8564 154.302 45.0754 149.33 43.2267C134.82 59.6589 119.076 74.96 102.238 88.9967C99.4111 94.7446 97.3589 97.4808 90.7265 97.7543C90.5941 101.558 90.1196 105.342 89.3086 109.06C89.3086 109.06 92.1413 114.029 99.9311 114.773C107.36 115.484 128.818 106.663 128.818 106.663C139.136 109.37 149.146 113.138 158.688 117.906C162.147 113.672 164.908 109.229 165.097 103.614C154.905 98.1598 144.139 93.8549 132.996 90.7787C130.24 89.9951 127.707 89.9872 125.374 90.4334ZM99.0615 108.147C99.0615 108.393 98.9639 108.629 98.7901 108.802C98.6164 108.976 98.3808 109.074 98.1351 109.074C97.8895 109.074 97.6539 108.976 97.4801 108.802C97.3064 108.629 97.2088 108.393 97.2088 108.147C97.2088 107.902 97.3064 107.666 97.4801 107.493C97.6539 107.319 97.8895 107.221 98.1351 107.221C98.3808 107.221 98.6164 107.319 98.7901 107.493C98.9639 107.666 99.0615 107.902 99.0615 108.147ZM112.609 98.5748C112.784 98.4011 112.881 98.1655 112.881 97.9198C112.881 97.6741 112.784 97.4385 112.609 97.2648C112.436 97.0911 112.2 96.9935 111.955 96.9935C111.709 96.9935 111.473 97.0911 111.3 97.2648C111.126 97.4385 111.028 97.6741 111.028 97.9198C111.028 98.1655 111.126 98.4011 111.3 98.5748C111.473 98.7486 111.709 98.8462 111.955 98.8462C112.2 98.8462 112.436 98.7486 112.609 98.5748ZM129.385 103.761C129.385 104.007 129.288 104.243 129.113 104.416C128.94 104.59 128.705 104.688 128.459 104.688C128.213 104.688 127.977 104.59 127.804 104.416C127.63 104.243 127.532 104.007 127.532 103.761C127.532 103.516 127.63 103.28 127.804 103.107C127.977 102.933 128.213 102.835 128.459 102.835C128.705 102.835 128.94 102.933 129.113 103.107C129.288 103.28 129.385 103.516 129.385 103.761ZM146.638 99.5012C146.813 99.3274 146.91 99.0918 146.91 98.8462C146.91 98.6005 146.813 98.3649 146.638 98.1912C146.465 98.0174 146.229 97.9198 145.984 97.9198C145.738 97.9198 145.502 98.0174 145.329 98.1912C145.155 98.3649 145.057 98.6005 145.057 98.8462C145.057 99.0918 145.155 99.3274 145.329 99.5012C145.502 99.6749 145.738 99.7725 145.984 99.7725C146.229 99.7725 146.465 99.6749 146.638 99.5012ZM156.665 112.42C156.665 112.666 156.568 112.902 156.393 113.075C156.22 113.249 155.984 113.346 155.739 113.346C155.493 113.346 155.257 113.249 155.084 113.075C154.91 112.902 154.812 112.666 154.812 112.42C154.812 112.174 154.91 111.938 155.084 111.765C155.257 111.591 155.493 111.494 155.739 111.494C155.984 111.494 156.22 111.591 156.393 111.765C156.568 111.938 156.665 112.174 156.665 112.42ZM108.791 89.4248C108.965 89.2511 109.062 89.0155 109.062 88.7698C109.062 88.5241 108.965 88.2885 108.791 88.1148C108.617 87.9411 108.382 87.8434 108.136 87.8434C107.89 87.8434 107.654 87.9411 107.481 88.1148C107.307 88.2885 107.21 88.5241 107.21 88.7698C107.21 89.0155 107.307 89.2511 107.481 89.4248C107.654 89.5985 107.89 89.6961 108.136 89.6961C108.382 89.6961 108.617 89.5985 108.791 89.4248ZM125.888 84.8375C125.888 85.0832 125.79 85.3188 125.616 85.4926C125.443 85.6663 125.207 85.7639 124.961 85.7639C124.716 85.7639 124.48 85.6663 124.307 85.4926C124.132 85.3188 124.035 85.0832 124.035 84.8375C124.035 84.5919 124.132 84.3563 124.307 84.1825C124.48 84.0088 124.716 83.9112 124.961 83.9112C125.207 83.9112 125.443 84.0088 125.616 84.1825C125.79 84.3563 125.888 84.5919 125.888 84.8375ZM129.113 70.2362C129.288 70.0625 129.385 69.8269 129.385 69.5812C129.385 69.3356 129.288 69.0999 129.113 68.9262C128.94 68.7525 128.705 68.6549 128.459 68.6549C128.213 68.6549 127.977 68.7525 127.804 68.9262C127.63 69.0999 127.532 69.3356 127.532 69.5812C127.532 69.8269 127.63 70.0625 127.804 70.2362C127.977 70.41 128.213 70.5076 128.459 70.5076C128.705 70.5076 128.94 70.41 129.113 70.2362ZM146.91 64.8172C146.91 65.0628 146.813 65.2984 146.638 65.4722C146.465 65.6459 146.229 65.7435 145.984 65.7435C145.738 65.7435 145.502 65.6459 145.329 65.4722C145.155 65.2984 145.057 65.0628 145.057 64.8172C145.057 64.5715 145.155 64.3359 145.329 64.1621C145.502 63.9884 145.738 63.8908 145.984 63.8908C146.229 63.8908 146.465 63.9884 146.638 64.1621C146.813 64.3359 146.91 64.5715 146.91 64.8172ZM150.973 49.3124C151.147 49.1386 151.244 48.903 151.244 48.6574C151.244 48.4117 151.147 48.1761 150.973 48.0024C150.799 47.8286 150.564 47.731 150.318 47.731C150.072 47.731 149.836 47.8286 149.663 48.0024C149.489 48.1761 149.392 48.4117 149.392 48.6574C149.392 48.903 149.489 49.1386 149.663 49.3124C149.836 49.4861 150.072 49.5837 150.318 49.5837C150.564 49.5837 150.799 49.4861 150.973 49.3124Z" fill="#202125"/>
<path d="M99.9241 72.549C99.754 72.8703 99.0216 74.1748 98.2843 75.534C96.3749 73.6643 97.2207 72.2843 99.9241 72.549Z" fill="#FF7125"/>
<path d="M106.189 75.3474L105.076 78.5424C106.071 78.5991 107.334 78.3851 107.388 77.4071C107.337 77.0006 107.204 76.6087 106.999 76.2547C106.793 75.9007 106.517 75.5921 106.189 75.3474Z" fill="#FF7125"/>
<path d="M94.3906 59.7499C94.6742 61.111 94.9389 62.2831 95.0871 62.9259C95.9189 62.4911 96.4443 61.9618 96.4294 61.3946C96.4184 60.6563 95.6573 60.0902 94.3906 59.7499Z" fill="#FF7125"/>
<path d="M87.9266 63.6258C84.864 62.8885 84.7695 61.0547 87.7376 59.9961C87.8842 61.2002 87.9473 62.413 87.9266 63.6258Z" fill="#FF7125"/>
<path d="M184.531 115.955C184.455 115.274 181.336 113.894 177.706 112.514C174.303 111.21 168.272 108.335 164.756 106.578C164.045 109.714 162.679 112.664 160.748 115.235C163.508 116.558 166.155 118.127 167.762 118.259C168.824 118.322 169.89 118.181 170.9 117.843C175.173 116.484 184.775 118.394 184.531 115.955Z" fill="#FF7125"/>
<path d="M166.963 26.8555C166.282 26.7799 164.277 29.5589 162.161 32.8106C160.308 35.6652 155.904 41.3367 152.936 45.0232C155.485 46.68 157.693 48.8107 159.439 51.2996C161.556 48.3505 165.129 45.6471 165.696 43.7376C165.975 42.7098 166.058 41.639 165.942 40.5805C165.529 36.1199 169.405 27.1202 166.963 26.8555Z" fill="#FF7125"/>
<path d="M73.8785 71.5089C74.4139 71.1546 74.8153 70.6311 75.0184 70.0221C75.2216 69.413 75.215 68.7535 74.9995 68.1486C74.7842 67.5438 74.3725 67.0285 73.83 66.6849C73.2876 66.3415 72.6458 66.1895 72.0069 66.2533C72.3606 65.7326 72.5325 65.1099 72.4961 64.4814C72.4597 63.8531 72.2168 63.2543 71.8053 62.7781C71.3938 62.3018 70.8366 61.9746 70.2201 61.8474C69.6037 61.7202 68.9626 61.7999 68.396 62.0743C69.3333 59.2684 65.4468 57.0476 63.4051 59.5221C63.3893 58.8281 63.1308 58.1617 62.6746 57.6385C62.2184 57.1153 61.5932 56.7685 60.9078 56.6584C60.2224 56.5483 59.5201 56.6818 58.9229 57.0357C58.3258 57.3897 57.8715 57.9417 57.6391 58.5958C56.5157 55.6397 52.0999 56.4436 52.0999 59.4654C51.649 59.0233 51.0642 58.7432 50.4371 58.6686C49.81 58.594 49.1758 58.7292 48.6337 59.0532C48.0917 59.3772 47.6721 59.8716 47.4407 60.4592C47.2093 61.0469 47.1791 61.6946 47.3548 62.3012C46.7702 62.0394 46.1148 61.9812 45.4931 62.1357C44.8715 62.2902 44.3196 62.6486 43.9257 63.1536C43.5317 63.6587 43.3182 64.2811 43.3196 64.9216C43.3209 65.5622 43.5369 66.1838 43.9329 66.6871C43.2602 66.6094 42.5817 66.7726 42.0179 67.1477C41.4541 67.5228 41.0415 68.0857 40.8533 68.7362C40.6652 69.3869 40.7137 70.083 40.9902 70.7012C41.2667 71.3194 41.7535 71.8195 42.3638 72.1129C41.6944 72.2047 41.079 72.5308 40.6272 73.0333C40.1753 73.5358 39.9162 74.1823 39.8958 74.8578C39.8754 75.5332 40.095 76.1941 40.5157 76.723C40.9364 77.2518 41.531 77.6145 42.1937 77.7466C39.6326 79.4301 41.3042 83.426 44.0842 82.9643C43.7344 83.4895 43.5672 84.1152 43.6083 84.7448C43.6493 85.3744 43.8963 85.973 44.3113 86.4483C44.7264 86.9236 45.2862 87.2492 45.9045 87.3748C46.5228 87.5004 47.1654 87.4191 47.7329 87.1433C46.7876 89.9741 50.7825 92.1442 52.7238 89.6577C52.7273 90.3361 52.9716 90.9912 53.4133 91.5062C53.855 92.0211 54.4652 92.3624 55.1352 92.4692C55.8051 92.5759 56.4912 92.4411 57.071 92.089C57.6509 91.7368 58.0867 91.19 58.3007 90.5462C58.4579 90.9827 58.7193 91.3741 59.0623 91.6864C59.4053 91.9987 59.8194 92.2224 60.2687 92.3379C60.7179 92.4536 61.1886 92.4574 61.6397 92.3495C62.0908 92.2415 62.5087 92.0248 62.8569 91.7183C61.9394 88.936 61.1881 86.1016 60.6072 83.23C58.8619 75.6202 59.2868 78.4023 58.452 75.063C56.07 74.5526 56.8073 71.7358 58.4709 72.6243C59.2669 73.0591 59.5485 73.0024 59.5485 72.492C59.7754 68.2951 62.9137 66.9906 65.239 71.1308C67.0539 74.3636 68.2637 80.2241 64.9553 81.0559C64.6109 81.1522 64.2541 81.1969 63.8966 81.1883C63.8966 82.0629 65.8329 84.8061 66.203 85.2678C67.3393 85.0812 68.5007 85.1133 69.6248 85.3623L72.4417 84.5116C72.5349 84.1787 72.5474 83.8285 72.4781 83.4898C72.409 83.1512 72.26 82.834 72.0437 82.5643C72.7147 82.6452 73.3926 82.4856 73.9571 82.114C74.5215 81.7424 74.9361 81.1827 75.127 80.5344C75.3178 79.8861 75.2728 79.1911 74.9997 78.5728C74.7268 77.9546 74.2434 77.4531 73.6357 77.1575C74.3047 77.069 74.9211 76.7475 75.3766 76.2496C75.8323 75.7517 76.0978 75.1093 76.1268 74.4351C76.1557 73.7609 75.9463 73.098 75.5351 72.5629C75.124 72.0278 74.5375 71.6546 73.8785 71.5089Z" fill="#FF7125"/>
<path d="M63.9713 81.2079C63.1262 81.1442 62.2966 80.9464 61.5137 80.6219L64.7653 83.0417C64.3812 82.4895 64.1111 81.866 63.9713 81.2079Z" fill="#FF7125"/>
<path d="M90.7245 97.787C87.0275 98.0923 83.3158 98.1807 79.6084 98.0517L90.63 100.49C90.7087 99.5915 90.7403 98.6892 90.7245 97.787Z" fill="#FF7125"/>
<path d="M55.7315 32.7918C55.7307 34.0218 55.3652 35.2239 54.6813 36.2463C53.9974 37.2685 53.0258 38.0651 51.8892 38.5353C50.7526 39.0054 49.5022 39.128 48.2958 38.8876C47.0896 38.6471 45.9818 38.0545 45.1123 37.1845C44.2429 36.3144 43.6509 35.2062 43.4112 33.9998C43.1716 32.7934 43.295 31.543 43.7658 30.4067C44.2367 29.2704 45.0339 28.2993 46.0567 27.6161C47.0793 26.9328 48.2817 26.5681 49.5117 26.5681C50.3291 26.5672 51.1386 26.7276 51.8939 27.04C52.6492 27.3526 53.3354 27.8111 53.9132 28.3892C54.491 28.9674 54.949 29.6538 55.261 30.4093C55.5731 31.1648 55.733 31.9745 55.7315 32.7918Z" fill="#FF7125"/>
<path d="M95.369 125.105C95.1101 121.407 95.6119 117.695 96.8436 114.197" stroke="#202125" stroke-linecap="round" stroke-linejoin="round"/>
<path d="M97.1301 73.8353L96.4307 61.3958" stroke="#202125" stroke-linecap="round" stroke-linejoin="round"/>
<path d="M86.7675 82.7579L85.5576 61.9624" stroke="#202125" stroke-linecap="round" stroke-linejoin="round"/>
<path d="M64.8016 83.1175L61.4365 80.5842" stroke="#202125" stroke-linecap="round" stroke-linejoin="round"/>
<path d="M61.4347 80.5841C68.921 83.4765 67.5768 75.2161 65.2913 71.1505C62.964 67.0113 59.8277 68.3147 59.6009 72.5117C59.6009 73.0221 59.3193 73.0748 58.5233 72.644C56.8646 71.7485 56.1223 74.5723 58.5044 75.0827C58.8258 76.3872 59.0944 77.1046 59.4118 78.1453C59.7571 79.2786 60.4068 82.0975 60.6595 83.2497C61.8436 88.6814 62.964 93.1569 65.2365 96.6533C71.4513 106.223 79.3775 109.433 89.3026 109.091C90.1136 105.373 90.5882 101.589 90.7205 97.7856C97.7531 97.1996 99.4944 95.6802 105.315 82.3025C105.899 80.9592 106.509 79.5234 107.187 77.9354" stroke="#202125" stroke-linecap="round" stroke-linejoin="round"/>
<path d="M66.2781 85.2913C65.2601 84.0883 64.4776 82.7044 63.9717 81.2119" stroke="#202125" stroke-linecap="round" stroke-linejoin="round"/>
<path d="M97.131 73.8307C95.7321 77.2336 92.5302 84.2941 89.777 86.1757C86.3094 88.5457 70.7586 85.5707 70.7586 85.5707C68.2253 85.0414 65.9756 84.7578 63.9717 86.308" stroke="#202125" stroke-linecap="round" stroke-linejoin="round"/>
<path d="M69.6807 85.3669L86.6195 80.2058" stroke="#202125" stroke-linecap="round" stroke-linejoin="round"/>
<path d="M103.669 62.3028C105.011 61.0929 107.848 57.7507 109.454 55.9508C110.193 55.1209 110.548 57.3497 106.164 62.5108" stroke="#202125" stroke-linecap="round" stroke-linejoin="round"/>
<path d="M105.073 63.284C106.605 62.2632 108.58 60.6433 110.423 59.2195C111.288 58.5518 111.955 59.8244 107.438 64.0591" stroke="#202125" stroke-linecap="round" stroke-linejoin="round"/>
<path d="M106.185 75.3471C107.678 76.7401 107.437 77.5212 107.187 77.9341C105.804 79.7788 98.5357 77.2038 97.3686 74.2755C96.896 73.0915 97.882 72.3482 99.9227 72.5462" stroke="#202125" stroke-linecap="round" stroke-linejoin="round"/>
<path d="M105.073 78.5419L106.189 75.3469C107.172 72.3411 107.399 71.6038 106.869 69.7322C106.453 68.2576 106.039 67.5611 106.964 67.0098C111.983 64.0189 112.107 62.6448 111.123 62.9831C109.025 63.7054 107.72 63.985 106.321 64.3442" stroke="#202125" stroke-linecap="round" stroke-linejoin="round"/>
<path d="M100.286 68.8627C99.7171 66.9446 98.8437 65.1304 97.6991 63.4897C97.0185 62.5444 97.6991 61.6181 100.61 64.813" stroke="#202125" stroke-linecap="round" stroke-linejoin="round"/>
<path d="M87.7334 60.0008C84.7713 61.0446 84.833 62.9112 87.9225 63.6306C90.3236 64.169 92.8341 63.9249 95.0865 62.9341C97.2058 61.8266 96.6785 60.4028 94.39 59.758" stroke="#202125" stroke-linecap="round" stroke-linejoin="round"/>
<path d="M90.8156 56.8774C90.5321 56.1968 90.3052 55.6296 90.0783 55.1192C88.8052 52.3983 87.2191 49.8351 85.3521 47.4816C83.0775 44.9354 82.5969 45.6826 84.0098 48.4836C86.3172 53.0606 88.1192 58.5261 87.9232 63.6265" stroke="#202125" stroke-linecap="round" stroke-linejoin="round"/>
<path d="M86.014 48.2751C85.879 47.0141 85.93 45.7402 86.1652 44.4941C86.2597 44.1538 86.7483 43.8334 87.1861 45.9498C87.2796 46.4035 87.7164 48.3507 87.9045 49.0343C88.2265 50.4327 88.637 51.8091 89.1333 53.1556" stroke="#202125" stroke-linecap="round" stroke-linejoin="round"/>
<path d="M90.0781 55.1186C91.0045 56.4041 91.8124 52.9992 92.3278 51.6022C92.7965 50.3336 93.8203 49.1078 93.5944 52.8122C93.4372 55.4211 94.4153 60.0657 95.087 62.9263" stroke="#202125" stroke-linecap="round" stroke-linejoin="round"/>
<path d="M102.442 96.1429L124.542 90.6466C127.322 89.9497 130.236 89.9953 132.993 90.7789C144.136 93.8551 154.901 98.16 165.093 103.614C164.904 109.229 162.144 113.672 158.684 117.907C149.142 113.139 139.133 109.37 128.815 106.663C128.815 106.663 107.356 115.484 99.9277 114.773C92.1379 114.029 89.2812 109.045 89.2812 109.045" stroke="#202125" stroke-linecap="round" stroke-linejoin="round"/>
<path d="M125.369 90.4334C138.034 79.0577 150.039 66.9701 161.329 54.2294C158.229 48.8564 154.297 45.0754 149.325 43.2267C134.815 59.6589 119.071 74.96 102.232 88.9966" stroke="#202125" stroke-linecap="round" stroke-linejoin="round"/>
<path d="M184.528 115.955C184.452 115.274 181.333 113.894 177.703 112.514C174.3 111.21 168.269 108.335 164.753 106.578C164.043 109.714 162.676 112.664 160.745 115.235C163.505 116.558 166.152 118.127 167.759 118.259C168.822 118.322 169.887 118.181 170.897 117.843C175.17 116.484 184.772 118.394 184.528 115.955Z" stroke="#202125" stroke-linecap="round" stroke-linejoin="round"/>
<path d="M166.96 26.8555C166.28 26.7799 164.274 29.5589 162.158 32.8106C160.306 35.6652 155.901 41.3367 152.933 45.0232C155.482 46.68 157.69 48.8107 159.436 51.2996C161.553 48.3505 165.126 45.6471 165.693 43.7376C165.972 42.7098 166.055 41.639 165.939 40.5805C165.526 36.1199 169.402 27.1202 166.96 26.8555Z" stroke="#202125" stroke-linecap="round" stroke-linejoin="round"/>
<path d="M72.497 84.5166C72.5591 84.0235 72.527 83.5231 72.4025 83.0421C72.321 82.8739 72.2208 82.7153 72.104 82.5694C72.7762 82.6533 73.4564 82.4955 74.023 82.1242C74.5895 81.7528 75.0056 81.1921 75.1971 80.5423C75.3884 79.8925 75.3424 79.1958 75.0675 78.5767C74.7925 77.9576 74.3064 77.4563 73.696 77.1626C74.372 77.0778 74.9957 76.7549 75.455 76.2516C75.9143 75.7484 76.179 75.0979 76.2018 74.4169C76.2246 73.736 76.0039 73.0693 75.5792 72.5364C75.1546 72.0036 74.5539 71.6398 73.8851 71.51C74.3739 71.1902 74.7535 70.7286 74.9729 70.1873C75.1923 69.6458 75.2411 69.0503 75.1127 68.4803C74.9844 67.9104 74.685 67.3933 74.2548 66.9982C73.8245 66.6031 73.2838 66.3487 72.705 66.2693C72.4744 66.2364 72.2406 66.2301 72.0085 66.2504C72.2601 65.8905 72.4222 65.4757 72.4811 65.0405C72.5332 64.6681 72.5113 64.2891 72.4167 63.9252C72.3221 63.5613 72.1567 63.2197 71.9299 62.9197C71.7031 62.6198 71.4194 62.3675 71.095 62.1775C70.7706 61.9874 70.4119 61.8631 70.0394 61.8117C69.477 61.7319 68.9037 61.8243 68.3947 62.0764C68.4294 61.9589 68.4547 61.8387 68.4703 61.7172C68.5561 61.0969 68.4362 60.4656 68.1291 59.9199C67.8218 59.3743 67.3443 58.9443 66.7694 58.696C66.1946 58.4476 65.5542 58.3945 64.9464 58.5449C64.3384 58.6952 63.7966 59.0406 63.4037 59.5282C63.4071 58.836 63.1603 58.166 62.7086 57.6414C62.257 57.1168 61.631 56.7732 60.9461 56.6736L60.757 56.6357C60.089 56.545 59.4103 56.6923 58.84 57.0518C58.2696 57.4113 57.844 57.96 57.6377 58.6019C57.4148 58.0051 56.9994 57.4995 56.457 57.1653C55.9147 56.8311 55.2764 56.6871 54.6431 56.7563C54.0097 56.8255 53.4176 57.1038 52.9602 57.5473C52.5028 57.9907 52.2062 58.574 52.1175 59.2048C52.1017 59.2921 52.0955 59.3809 52.0985 59.4695C51.6637 59.0364 51.0996 58.757 50.4916 58.6735C50.1194 58.6206 49.7404 58.6419 49.3764 58.7359C49.0125 58.83 48.6707 58.9951 48.3707 59.2218C48.0707 59.4484 47.8186 59.7321 47.6286 60.0566C47.4387 60.3809 47.3147 60.7397 47.2638 61.1123C47.2091 61.5127 47.243 61.9204 47.3633 62.3063C47.1179 62.192 46.8566 62.1155 46.5882 62.0794C46.2158 62.027 45.8367 62.0486 45.4726 62.1428C45.1086 62.237 44.7666 62.4022 44.4664 62.6286C44.1661 62.8551 43.9135 63.1386 43.7228 63.4628C43.5322 63.787 43.4074 64.1456 43.3555 64.5181C43.304 64.9013 43.3293 65.2909 43.4299 65.6641C43.5305 66.0374 43.7044 66.3869 43.9415 66.6922C43.2675 66.6114 42.5868 66.7729 42.0209 67.1477C41.4549 67.5225 41.0407 68.0864 40.8521 68.7385C40.6635 69.3906 40.7129 70.0885 40.9914 70.7075C41.2699 71.3266 41.7594 71.8265 42.3724 72.118C41.7 72.2058 41.0807 72.5303 40.6257 73.0332C40.1706 73.536 39.9095 74.1845 39.889 74.8624C39.8685 75.5403 40.0901 76.2033 40.514 76.7327C40.9378 77.2621 41.5363 77.6233 42.2023 77.7516C41.8635 77.9741 41.5766 78.2671 41.3613 78.6105C41.146 78.9539 41.0073 79.3398 40.9545 79.7416C40.8528 80.4908 41.0509 81.2498 41.5057 81.8536C41.9605 82.4575 42.6353 82.8574 43.3833 82.9664C43.6141 83.0034 43.8492 83.0034 44.0798 82.9664C43.8421 83.3318 43.6872 83.7447 43.6261 84.1764C43.5545 84.6922 43.6246 85.2176 43.829 85.6966C44.0334 86.1755 44.3644 86.5897 44.7864 86.8948C45.2084 87.2 45.7055 87.3843 46.2243 87.4283C46.7432 87.4723 47.2642 87.3742 47.7315 87.1444C47.6969 87.2556 47.6716 87.3694 47.6559 87.4847C47.6016 87.8574 47.6218 88.2371 47.7153 88.602C47.8088 88.9668 47.9737 89.3095 48.2005 89.6102C48.4273 89.9108 48.7115 90.1635 49.0366 90.3535C49.3618 90.5437 49.7214 90.6673 50.0946 90.7175C50.5871 90.7896 51.09 90.7295 51.5517 90.5436C52.0135 90.3575 52.4174 90.0522 52.7224 89.6588C52.7215 90.3397 52.9636 90.9986 53.4052 91.5168C53.8468 92.0351 54.4589 92.3787 55.1313 92.4858C55.8037 92.593 56.4923 92.4566 57.073 92.1011C57.6538 91.7458 58.0887 91.1948 58.2994 90.5473C58.4565 90.9838 58.7179 91.3752 59.0609 91.6875C59.4039 91.9997 59.8181 92.2234 60.2673 92.339C60.7165 92.4546 61.1872 92.4585 61.6383 92.3506C62.0894 92.2426 62.5073 92.0259 62.8555 91.7195" stroke="#202125" stroke-linecap="round" stroke-linejoin="round"/>
<path d="M60.7939 83.8167L64.8018 83.1172" stroke="#202125" stroke-linecap="round" stroke-linejoin="round"/>
<path d="M169.478 169.816C168.046 169.328 166.734 168.541 165.629 167.508C164.525 166.475 163.652 165.219 163.069 163.823L160.668 158.114L169.894 154.408L170.763 156.45C171.697 158.676 173.45 160.457 175.66 161.425L185.944 165.962C186.083 166.021 186.21 166.108 186.315 166.216C186.421 166.324 186.502 166.454 186.557 166.594C186.612 166.735 186.637 166.886 186.633 167.037C186.629 167.188 186.594 167.337 186.53 167.475C185.656 169.423 184.086 170.975 182.128 171.825C180.169 172.675 177.963 172.762 175.943 172.069L169.478 169.816Z" stroke="#202125" stroke-linecap="round" stroke-linejoin="round"/>
<path d="M160.668 158.113L169.894 154.408L166.945 147.451C166.86 147.258 166.705 147.106 166.512 147.026C166.318 146.944 166.101 146.941 165.905 147.016L158.192 150.1C158.093 150.141 158.004 150.201 157.929 150.275C157.854 150.351 157.794 150.44 157.754 150.539C157.713 150.638 157.693 150.743 157.693 150.849C157.694 150.956 157.715 151.06 157.757 151.159L160.668 158.113Z" stroke="#202125" stroke-linecap="round" stroke-linejoin="round"/>
<path d="M95.3154 77.918C96.5528 79.3438 98.0926 80.4758 99.8225 81.2318C101.552 81.9877 103.43 82.3486 105.316 82.288" stroke="#202125" stroke-linecap="round" stroke-linejoin="round"/>
<path d="M85.8066 66.1214C87.5396 66.8416 89.4074 67.1798 91.283 67.113C93.1585 67.0463 94.9976 66.576 96.675 65.7344" stroke="#202125" stroke-linecap="round" stroke-linejoin="round"/>
<path d="M35.6885 128.886L120.969 170.326" stroke="#202125" stroke-linecap="round" stroke-linejoin="round"/>
<path d="M138.493 171.876C138.996 170.84 139.067 169.648 138.691 168.56C138.315 167.472 137.523 166.578 136.49 166.072L129.495 162.689C128.459 162.187 127.267 162.116 126.178 162.491C125.091 162.867 124.196 163.659 123.691 164.693L113.879 184.884C113.377 185.919 113.306 187.111 113.681 188.2C114.057 189.287 114.849 190.182 115.883 190.687L122.878 194.09C123.914 194.593 125.106 194.663 126.194 194.288C127.282 193.912 128.176 193.12 128.682 192.086L138.493 171.876Z" stroke="#202125" stroke-linecap="round" stroke-linejoin="round"/>
<path d="M32.9092 115.747L35.8016 109.811C37.2221 106.889 39.7442 104.651 42.8139 103.587C45.8837 102.524 49.2499 102.722 52.1734 104.139L130.213 142.049C133.135 143.469 135.373 145.991 136.437 149.061C137.5 152.131 137.302 155.497 135.885 158.42L132.992 164.375" stroke="#202125" stroke-linecap="round" stroke-linejoin="round"/>
<path d="M22.793 145.466L115.9 190.686" stroke="#202125" stroke-linecap="round" stroke-linejoin="round"/>
<path d="M168.668 67.483L170.18 77.1624" stroke="#202125" stroke-linecap="round" stroke-linejoin="round"/>
<path d="M174.261 71.5663L164.582 73.0787" stroke="#202125" stroke-linecap="round" stroke-linejoin="round"/>
<path d="M55.7285 32.7918C55.7277 34.0218 55.3623 35.2239 54.6784 36.2463C53.9944 37.2685 53.0228 38.0651 51.8862 38.5353C50.7497 39.0054 49.4992 39.128 48.2929 38.8876C47.0867 38.6471 45.9788 38.0545 45.1094 37.1845C44.24 36.3144 43.6479 35.2062 43.4082 33.9998C43.1686 32.7934 43.292 31.543 43.7629 30.4067C44.2338 29.2704 45.031 28.2993 46.0537 27.6161C47.0764 26.9328 48.2788 26.5681 49.5088 26.5681C50.3262 26.5672 51.1357 26.7276 51.891 27.04C52.6463 27.3526 53.3325 27.8111 53.9103 28.3892C54.4881 28.9674 54.9461 29.6538 55.2581 30.4093C55.5701 31.1648 55.73 31.9745 55.7285 32.7918Z" stroke="#202125" stroke-linecap="round" stroke-linejoin="round"/>
<path d="M48.3582 22.168C49.1465 23.4981 49.5451 25.023 49.5084 26.5688C48.0965 25.9516 46.8852 24.9523 46.011 23.6833C45.2209 22.3523 44.8212 20.8259 44.8578 19.2785C46.2713 19.8963 47.4838 20.8971 48.3582 22.168Z" stroke="#202125" stroke-linecap="round" stroke-linejoin="round"/>
<path d="M90.6122 100.488L79.6055 98.0331" stroke="#202125" stroke-linecap="round" stroke-linejoin="round"/>
<path d="M90.7186 97.7877C84.0636 98.3823 77.3615 98.1792 70.7549 97.1827" stroke="#202125" stroke-linecap="round" stroke-linejoin="round"/>
<path d="M21.9062 87.8057L22.3411 90.2255" stroke="#202125" stroke-linecap="round" stroke-linejoin="round"/>
<path d="M20.453 92.9103L18.0332 93.3451" stroke="#202125" stroke-linecap="round" stroke-linejoin="round"/>
<path d="M27.4472 91.6997L25.0273 92.1157" stroke="#202125" stroke-linecap="round" stroke-linejoin="round"/>
<path d="M23.5507 97.2202L23.1348 94.8003" stroke="#202125" stroke-linecap="round" stroke-linejoin="round"/>
<path d="M25.0262 92.1162C24.7256 92.1694 24.4175 92.1626 24.1195 92.0962C23.8215 92.0299 23.5396 91.9053 23.2899 91.7296C23.0402 91.5539 22.8278 91.3306 22.6647 91.0725C22.5016 90.8144 22.3912 90.5266 22.3397 90.2257C22.3929 90.5263 22.3861 90.8345 22.3197 91.1325C22.2534 91.4305 22.1288 91.7124 21.9531 91.9621C21.7774 92.2118 21.5541 92.4242 21.2961 92.5873C21.038 92.7504 20.7502 92.8608 20.4492 92.9122C20.7499 92.8591 21.0581 92.8659 21.356 92.9322C21.654 92.9986 21.9359 93.1232 22.1856 93.2989C22.4352 93.4746 22.6477 93.6979 22.8108 93.956C22.9738 94.2141 23.0843 94.5019 23.1357 94.8027C23.0826 94.5022 23.0894 94.194 23.1557 93.896C23.2221 93.598 23.3467 93.3161 23.5224 93.0664C23.6981 92.8167 23.9214 92.6043 24.1795 92.4412C24.4376 92.2781 24.7253 92.1677 25.0262 92.1162Z" stroke="#202125" stroke-linecap="round" stroke-linejoin="round"/>
<path d="M154.958 116.107C156.62 123.111 155.716 130.48 152.411 136.876C149.105 143.272 143.617 148.271 136.941 150.967" stroke="#202125" stroke-linecap="round" stroke-linejoin="round"/>
<path d="M98.2812 75.5365C99.0185 74.1754 99.9071 72.5684 99.9071 72.5684C100.323 71.7177 100.223 64.9666 100.871 63.5139C101.04 63.1358 104.201 59.4344 105.692 57.6345C106.961 56.1052 108.131 55.933 104.974 60.9807" stroke="#202125" stroke-linecap="round" stroke-linejoin="round"/>
<path d="M38.4073 123.252C38.9094 122.217 38.9804 121.024 38.6048 119.936C38.2292 118.848 37.4375 117.954 36.4034 117.448L29.4274 114.065C28.3917 113.563 27.1993 113.492 26.1114 113.867C25.0235 114.244 24.1288 115.036 23.6236 116.069L13.793 136.26C13.2909 137.296 13.2199 138.488 13.5955 139.576C13.9711 140.664 14.7628 141.558 15.7969 142.064L22.7918 145.467C23.8275 145.969 25.0199 146.04 26.1078 145.665C27.1958 145.289 28.0905 144.497 28.5956 143.463L38.4073 123.252Z" stroke="#202125" stroke-linecap="round" stroke-linejoin="round"/>
<path d="M120.686 5.47437L120.479 24.455L132.389 45.0992L132.597 26.1186L120.686 5.47437Z" stroke="#202125" stroke-linejoin="round"/>
<path d="M125.414 33.0877L119.175 39.2885L117.455 60.1407L132.409 45.1869L125.414 33.0877Z" stroke="#202125" stroke-linejoin="round"/>
</svg>
