<svg width="200" height="200" viewBox="0 0 200 200" fill="none" xmlns="http://www.w3.org/2000/svg">
<path d="M155.996 89.5986L125.648 87.33C122.709 87.1073 119.759 87.5935 117.047 88.7478L108.974 92.1885C107.888 94.1596 106.554 95.9831 105.004 97.6143C101.11 101.773 86.1746 109.506 78.2913 111.131C76.4339 111.462 74.5195 111.127 72.8844 110.186C69.3128 113.052 65.5703 115.698 61.6777 118.109C61.6777 118.109 69.0507 139.113 96.5027 127.24L118.338 117.769L113.555 129.244C113.687 135.804 113.725 144.406 113.29 150.139C118.417 151.701 123.884 151.753 129.039 150.29C131.099 136.3 132.668 114.219 127.337 105.882L153.427 105.636C156.714 99.7147 156.425 96.3476 155.996 89.5986Z" fill="#202125"/>
<path d="M107.52 81.4675L110.696 67.4967C110.766 67.1908 110.712 66.8696 110.545 66.6037C110.379 66.3378 110.113 66.149 109.808 66.0788C109.502 66.0086 109.18 66.0628 108.915 66.2294C108.649 66.3961 108.46 66.6615 108.39 66.9673L104.646 83.4336" fill="#202125"/>
<path d="M107.52 81.4675L110.696 67.4967C110.766 67.1908 110.712 66.8696 110.545 66.6037C110.379 66.3378 110.113 66.149 109.808 66.0788C109.502 66.0086 109.18 66.0628 108.915 66.2294C108.649 66.3961 108.46 66.6615 108.39 66.9673L104.646 83.4336C105.117 85.1699 106.382 87.4982 107.52 81.4675Z" fill="#202125"/>
<path d="M105.061 28.5326C105.061 30.877 104.366 33.1688 103.064 35.118C101.761 37.0673 99.91 38.5866 97.744 39.4838C95.5781 40.3809 93.1948 40.6157 90.8954 40.1583C88.5961 39.7009 86.484 38.572 84.8263 36.9143C83.1686 35.2565 82.0396 33.1445 81.5823 30.8451C81.1249 28.5458 81.3596 26.1625 82.2568 23.9965C83.1539 21.8306 84.6732 19.9793 86.6225 18.6769C88.5718 17.3744 90.8635 16.6792 93.2079 16.6792C96.351 16.6813 99.3648 17.9308 101.587 20.1533C103.81 22.3758 105.059 25.3896 105.061 28.5326Z" fill="#202125"/>
<path d="M166.968 91.0895C164.793 96.2462 161.721 100.976 157.894 105.06C159.992 105.382 162.09 105.856 163.886 106.138C165.757 105.322 167.511 104.261 169.102 102.983C174.077 98.9748 184.326 94.0028 186.57 91.1671C182.506 90.579 172.562 90.976 166.968 91.0895Z" fill="#FF7125"/>
<path d="M128.51 161.796C123.271 159.818 118.425 156.924 114.199 153.25C113.954 155.349 113.575 157.466 113.349 159.281C114.235 161.122 115.36 162.838 116.695 164.386C120.874 169.187 126.224 179.245 129.132 181.4C129.588 177.317 128.833 167.391 128.51 161.796Z" fill="#FF7125"/>
<path d="M63.6097 101.866C63.2316 102.055 62.8345 102.225 62.4375 102.395C60.5834 100.216 58.8413 97.9449 57.2178 95.5894C57.3879 95.9874 62.6057 107.273 71.2642 111.526C71.8313 111.073 72.3796 110.638 72.89 110.203C69.6553 108.445 66.2942 105.042 63.6097 101.866Z" fill="#FF7125"/>
<path d="M113.329 119.92C113.329 119.92 113.499 123.909 113.594 129.221L118.339 117.765L113.329 119.92Z" fill="#FF7125"/>
<path d="M62.4183 52.2589C62.4183 52.2589 59.1079 46.057 51.321 49.839C43.5342 53.621 45.0446 68.8196 45.0446 68.8196C45.0446 68.8196 38.1243 72.128 34.4379 77.705C28.7286 86.3446 31.6031 99.389 49.3569 99.389C48.5106 95.665 48.2175 91.8366 48.4873 88.0271C48.9599 81.3159 51.3986 75.1717 53.5538 68.8764C56.302 60.7383 55.712 61.389 56.6731 58.403C54.3846 56.2289 57.108 53.62 58.3368 55.7364C58.8572 56.5921 58.9815 56.6259 59.3974 56.7563C61.6501 57.4617 65.7376 58.2488 67.9544 57.5145C67.9574 57.4567 68.1465 52.2589 62.4183 52.2589Z" fill="#FF7125"/>
<path d="M58.224 71.5055L56.2012 66.439C56.8758 67.3434 57.6708 68.1504 58.5643 68.8399C58.3982 69.7209 58.2846 70.611 58.224 71.5055Z" fill="#FF7125"/>
<path d="M84.9743 157.354C85.1051 157.993 85.0433 158.657 84.7969 159.261C84.5505 159.865 84.1304 160.383 83.5899 160.748C83.0493 161.114 82.4125 161.311 81.76 161.315C81.1075 161.318 80.4685 161.128 79.924 160.769C79.3794 160.409 78.9537 159.896 78.7006 159.295C78.4476 158.693 78.3785 158.03 78.5022 157.39C78.626 156.749 78.9369 156.159 79.3957 155.695C79.8545 155.231 80.4406 154.914 81.0799 154.783C81.5045 154.693 81.9429 154.688 82.3693 154.77C82.7957 154.851 83.2016 155.017 83.5634 155.256C83.9256 155.495 84.2369 155.804 84.4791 156.164C84.7213 156.524 84.8896 156.928 84.9743 157.354Z" fill="#FF7125"/>
<path d="M105.062 28.5326C105.062 30.877 104.367 33.1688 103.065 35.1181C101.762 37.0673 99.9109 38.5866 97.745 39.4838C95.5791 40.3809 93.1958 40.6157 90.8964 40.1583C88.5971 39.7009 86.485 38.572 84.8273 36.9143C83.1695 35.2565 82.0406 33.1445 81.5832 30.8451C81.1259 28.5458 81.3606 26.1625 82.2578 23.9965C83.1549 21.8306 84.6742 19.9793 86.6235 18.6769C88.5728 17.3744 90.8645 16.6792 93.2089 16.6792C96.352 16.6813 99.3657 17.9308 101.588 20.1533C103.811 22.3758 105.06 25.3896 105.062 28.5326Z" stroke="#202125"/>
<path d="M130.98 126.821L140.754 131.755C142.761 132.765 145.085 132.938 147.219 132.236C149.352 131.535 151.121 130.016 152.136 128.012L163.328 105.855" stroke="#202125" stroke-linecap="round" stroke-linejoin="round"/>
<path d="M170.42 91.8296L177.321 78.1802C178.33 76.1741 178.503 73.8495 177.801 71.7161C177.1 69.5827 175.581 67.8146 173.577 66.7994L104.514 31.9067M65.3643 77.3146L85.4016 37.623" stroke="#202125" stroke-linecap="round" stroke-linejoin="round"/>
<path d="M177.642 71.1853L119.961 80.4865L98.6406 39.0796" stroke="#202125" stroke-linecap="round" stroke-linejoin="round"/>
<path d="M88.3578 129.98C81.8762 137.107 73.3852 142.101 64.0062 144.302C54.6271 146.502 44.8011 145.806 35.8258 142.306C29.8676 139.982 24.4384 136.483 19.8618 132.016C15.2852 127.549 11.655 122.206 9.18761 116.306C5.4717 107.418 4.53851 97.6122 6.51123 88.1828C8.48395 78.7533 13.2698 70.1438 20.2371 63.4907" stroke="#202125" stroke-linecap="round" stroke-linejoin="round"/>
<path d="M58.2141 73.074C58.1614 71.6412 58.2828 70.2074 58.5763 68.8035C60.8807 70.3447 62.7852 69.3865 64.1831 67.3926C65.9762 64.4905 66.8967 61.1339 66.8348 57.7231" stroke="#202125" stroke-linecap="round" stroke-linejoin="round"/>
<path d="M57.2164 95.5897C58.8392 97.9453 60.5807 100.217 62.4342 102.396C65.4134 101.147 68.1578 99.399 70.5494 97.2275C72.3212 95.6192 73.9108 93.8211 75.2896 91.8654C72.0275 87.6 69.0047 83.1568 66.2351 78.5563C64.8861 76.3127 62.8614 74.5537 60.4512 73.5316C59.4174 73.1299 58.3011 72.9871 57.1995 73.1157C56.3815 73.3303 55.5244 73.3493 54.6977 73.1713C53.8709 72.9932 53.0976 72.6231 52.4404 72.0908" stroke="#202125" stroke-linecap="round" stroke-linejoin="round"/>
<path d="M156.147 91.0732C158.718 91.1678 163.822 91.1489 166.942 91.0921C164.773 96.2474 161.707 100.977 157.887 105.063C156.923 104.912 154.881 104.704 153.955 104.647" stroke="#202125" stroke-linecap="round" stroke-linejoin="round"/>
<path d="M186.561 91.1665C187.638 91.3177 188.331 91.5645 188.413 91.9038C188.937 94.051 177.699 99.2668 172.647 103.341C171.177 104.541 169.533 105.51 167.771 106.215C166.486 106.451 165.166 106.425 163.891 106.139C165.764 105.326 167.521 104.264 169.112 102.984C174.073 98.9842 184.312 94.0212 186.561 91.1665Z" stroke="#202125" stroke-linecap="round" stroke-linejoin="round"/>
<path d="M166.962 91.0899C172.558 90.9764 182.502 90.5794 186.564 91.1655C184.314 94.0012 174.071 98.9782 169.095 102.981C167.505 104.262 165.75 105.323 163.878 106.138C162.082 105.855 159.983 105.382 157.885 105.061C161.713 100.977 164.786 96.2468 166.962 91.0899Z" stroke="#202125" stroke-linecap="round" stroke-linejoin="round"/>
<path d="M128.28 150.512C128.11 153.347 128.28 157.525 128.507 161.817C123.276 159.835 118.437 156.942 114.215 153.272C114.328 152.308 114.404 151.343 114.423 150.436" stroke="#202125" stroke-linecap="round" stroke-linejoin="round"/>
<path d="M129.127 181.402C129.013 182.496 128.807 183.183 128.465 183.292C126.357 183.964 120.711 172.84 116.46 167.941C115.201 166.513 114.168 164.9 113.398 163.158C113.121 161.881 113.102 160.562 113.341 159.278C114.225 161.12 115.35 162.837 116.687 164.382C120.866 169.205 126.215 179.246 129.127 181.402Z" stroke="#202125" stroke-linecap="round" stroke-linejoin="round"/>
<path d="M128.507 161.798C128.829 167.393 129.585 177.32 129.131 181.399C126.22 179.244 120.857 169.197 116.694 164.385C115.358 162.839 114.232 161.122 113.348 159.28C113.575 157.465 113.953 155.347 114.198 153.249C118.424 156.924 123.269 159.819 128.507 161.798Z" stroke="#202125" stroke-linecap="round" stroke-linejoin="round"/>
<path d="M71.2584 111.526C62.5999 107.273 57.3821 95.9864 57.21 95.5894" stroke="#202125" stroke-linecap="round" stroke-linejoin="round"/>
<path d="M63.6064 101.868C66.2929 105.044 69.658 108.463 72.8898 110.226C74.5289 111.155 76.4408 111.482 78.2956 111.152C86.186 109.56 101.114 101.794 105.008 97.6351C112.061 90.1029 111.482 84.3648 110.869 74.779C110.62 70.8845 110.131 70.9781 109.546 72.789C108.675 75.4914 107.576 82.0425 106.672 84.6235C106.587 84.8832 106.413 85.1041 106.181 85.2473C105.484 85.6453 105.045 84.7747 104.688 83.5459C104.309 82.2415 104.038 80.5042 103.686 79.4664C103.068 77.6366 101.807 75.969 101.606 81.338C101.489 84.4951 101.481 89.9328 98.0524 91.9248C95.3838 93.4454 92.603 94.76 89.7342 95.857C86.767 97.0191 83.6586 97.782 80.4906 98.1256C78.7693 98.2172 76.4628 96.254 74.2699 93.2103" stroke="#202125" stroke-linecap="round" stroke-linejoin="round"/>
<path d="M107.52 81.467L110.696 67.4962C110.766 67.1903 110.712 66.8691 110.545 66.6032C110.379 66.3373 110.113 66.1485 109.808 66.0783C109.502 66.0081 109.18 66.0623 108.915 66.2289C108.649 66.3956 108.46 66.661 108.39 66.9669L104.646 83.4331" stroke="#202125" stroke-linecap="round" stroke-linejoin="round"/>
<path d="M113.329 119.939C116.278 118.672 118.338 117.766 118.338 117.766L113.588 129.222" stroke="#202125" stroke-linecap="round" stroke-linejoin="round"/>
<path d="M72.8912 110.223C69.3202 113.079 65.5761 115.713 61.6805 118.108C55.3291 113.675 50.9185 106.976 49.3564 99.3901" stroke="#202125" stroke-linecap="round" stroke-linejoin="round"/>
<path d="M108.959 92.1856L117.825 88.4235C120.021 87.4957 122.405 87.1006 124.782 87.2703L155.996 89.5956C156.698 96.1278 156.615 99.8849 153.425 105.627L127.372 105.873" stroke="#202125" stroke-linecap="round" stroke-linejoin="round"/>
<path d="M62.4173 52.2589C62.4173 52.2589 59.1069 46.057 51.3201 49.839C43.5332 53.621 45.0436 68.8196 45.0436 68.8196C45.0436 68.8196 38.1234 72.128 34.4369 77.705C28.7276 86.3446 31.6021 99.389 49.3559 99.389C48.5096 95.665 48.2166 91.8366 48.4863 88.0271C48.9589 81.3159 51.3977 75.1717 53.5528 68.8764C54.0444 67.4207 55.2165 63.8665 55.6135 62.3909C55.9727 61.0119 56.1428 60.0467 56.6722 58.403C54.3837 56.2289 57.107 53.62 58.3358 55.7364C58.8781 56.6319 58.9835 56.5802 59.5776 56.7762C61.0482 57.2597 65.0103 58.3572 67.9584 57.4727C67.9565 57.4756 68.1455 52.2589 62.4173 52.2589Z" stroke="#202125" stroke-linecap="round" stroke-linejoin="round"/>
<path d="M25.0959 55.5097C18.3938 58.7424 12.0881 62.7394 6.30428 67.4208C6.1415 67.5221 6.00571 67.6613 5.90856 67.8266C5.81141 67.9918 5.75581 68.1782 5.74651 68.3696C5.73722 68.5611 5.77451 68.752 5.8552 68.9259C5.93588 69.0998 6.05755 69.2515 6.20976 69.368L10.5201 72.7898C13.132 69.3641 16.6732 66.4686 20.2313 63.4776C17.4926 67.0205 15.094 70.8136 13.0673 74.8067L17.705 78.4802C17.8546 78.5992 18.0306 78.6805 18.2182 78.7173C18.4058 78.754 18.5995 78.7452 18.783 78.6914C18.9664 78.6377 19.1343 78.5406 19.2724 78.4085C19.4105 78.2763 19.5148 78.1129 19.5766 77.932L26.8729 56.9146C26.9582 56.679 26.9671 56.4225 26.8985 56.1815C26.8299 55.9405 26.6872 55.7272 26.4906 55.5718C26.2941 55.4164 26.0536 55.3268 25.8033 55.3156C25.5529 55.3045 25.3055 55.3724 25.0959 55.5097Z" stroke="#202125" stroke-linecap="round" stroke-linejoin="round"/>
<path d="M153.271 19.4798C149.509 17.6072 145.293 20.2758 145.898 24.2061L144.14 25.8309L146.559 26.02C148.696 29.6308 154.121 29.7831 155.899 26.2279C156.442 24.9843 156.471 23.5759 155.978 22.3112C155.486 21.0465 154.512 20.0284 153.271 19.4798Z" stroke="#202125" stroke-linecap="round" stroke-linejoin="round"/>
<path d="M175.652 128.71C174.499 128.113 173.156 127.999 171.918 128.391C171.305 128.586 170.737 128.9 170.245 129.315C169.754 129.729 169.349 130.237 169.054 130.808C169.054 130.808 165.859 137.048 163.175 136.858L176.522 143.758C174.801 141.679 177.751 135.309 177.751 135.309C178.047 134.738 178.228 134.114 178.282 133.473C178.337 132.833 178.264 132.187 178.069 131.574C177.874 130.962 177.56 130.393 177.146 129.902C176.731 129.41 176.223 129.005 175.652 128.71Z" stroke="#202125" stroke-linecap="round" stroke-linejoin="round"/>
<path d="M172.046 141.455C171.902 141.751 171.7 142.014 171.452 142.231C171.204 142.447 170.916 142.612 170.603 142.715C170.291 142.818 169.961 142.858 169.633 142.832C169.305 142.806 168.986 142.715 168.693 142.564C168.401 142.412 168.142 142.204 167.931 141.952C167.721 141.699 167.563 141.407 167.466 141.092C167.37 140.778 167.338 140.447 167.371 140.12C167.404 139.793 167.503 139.475 167.66 139.187" stroke="#202125" stroke-linecap="round" stroke-linejoin="round"/>
<path d="M190.214 56.4961L186.679 68.6709" stroke="#202125" stroke-linecap="round" stroke-linejoin="round"/>
<path d="M194.522 64.339L182.348 60.8037" stroke="#202125" stroke-linecap="round" stroke-linejoin="round"/>
<path d="M113.606 143.893C118.977 144.776 124.447 144.877 129.846 144.191" stroke="#202125" stroke-linecap="round" stroke-linejoin="round"/>
<path d="M148.769 89.1035C149.621 94.775 148.704 100.571 146.142 105.702" stroke="#202125" stroke-linecap="round" stroke-linejoin="round"/>
<path d="M84.9655 157.354C85.0963 157.994 85.0345 158.657 84.7881 159.262C84.5417 159.866 84.1217 160.383 83.5811 160.749C83.0405 161.114 82.4037 161.311 81.7512 161.315C81.0987 161.319 80.4597 161.129 79.9152 160.769C79.3706 160.41 78.9449 159.897 78.6918 159.295C78.4388 158.694 78.3697 158.031 78.4934 157.39C78.6172 156.749 78.9281 156.16 79.3869 155.696C79.8457 155.232 80.4318 154.914 81.0711 154.783C81.4957 154.693 81.9341 154.689 82.3605 154.77C82.7869 154.852 83.1928 155.017 83.5546 155.257C83.9169 155.496 84.2282 155.804 84.4705 156.164C84.7127 156.524 84.8809 156.929 84.9655 157.354Z" stroke="#202125" stroke-linecap="round" stroke-linejoin="round"/>
<path d="M83.4761 147.011C84.7433 145.826 86.3338 145.043 88.0462 144.761C89.7586 144.48 91.516 144.713 93.0958 145.431C94.6761 146.149 96.0083 147.318 96.9237 148.793C97.8391 150.267 98.2967 151.98 98.2385 153.714C98.1804 155.449 97.6091 157.127 96.597 158.537C95.5849 159.946 94.1774 161.024 92.5525 161.634C90.928 162.244 89.1592 162.358 87.4697 161.963C85.7802 161.567 84.2457 160.68 83.0602 159.413C81.4717 157.713 80.6232 155.452 80.7012 153.126C80.7792 150.801 81.7773 148.601 83.4761 147.011Z" stroke="#202125" stroke-linecap="round" stroke-linejoin="round"/>
<path d="M61.6777 118.109C61.6777 118.109 69.0507 139.113 96.5027 127.24L113.332 119.94C113.541 127.882 113.981 141.324 113.312 150.133C118.438 151.695 123.905 151.747 129.06 150.285C131.121 136.294 132.714 114.21 127.378 105.876C120.464 95.0771 99.2091 102 99.2091 102" stroke="#202125" stroke-linecap="round" stroke-linejoin="round"/>
<path d="M58.58 68.8052C57.6692 68.1559 56.8689 67.364 56.21 66.46L58.2179 71.5066" stroke="#202125" stroke-linecap="round" stroke-linejoin="round"/>
</svg>
